M48
;Layer_Color=9474304
;FILE_FORMAT=2:5
INCH,LZ
;TYPE=PLATED
T1F00S00C0.01181
T2F00S00C0.03500
%
T01
X002273Y0018351
X0025546
X0029145Y0016646
X0029255Y0013877
X0037Y0019
X004
X00435
X00465
X005
X00525
Y0023
X005
X00465
X00435
X004
X0037
Y0027
X004
X00435
X00465
X005
X00525
X0049Y00395
Y00425
X00515Y0043
X0052Y0047
X004041Y004041
X0027226Y004293
X0037Y00066
Y00041
X004
Y00066
X004299
X0043Y00041
X0046
Y00066
X00493
Y00041
X00523
Y00066
X0033Y0057
X0023Y006185
T02
X0006425Y0006659
X0014925
Y0016659
X0006425
Y0026659
X0014925
Y0036659
X0006425
Y0046659
X0014925
Y005666
X0006425
Y0066659
X0014925
Y007666
X0006425
M30
