G04*
G04 #@! TF.GenerationSoftware,Altium Limited,Altium Designer,21.6.1 (37)*
G04*
G04 Layer_Color=2752767*
%FSLAX25Y25*%
%MOIN*%
G70*
G04*
G04 #@! TF.SameCoordinates,B910C7B4-C9C7-41F4-8FA7-49552EACB796*
G04*
G04*
G04 #@! TF.FilePolarity,Positive*
G04*
G01*
G75*
%ADD52C,0.00200*%
%ADD53C,0.00267*%
D52*
X5625Y75859D02*
Y77460D01*
X7225D01*
Y75859D01*
X5625D01*
Y65860D02*
Y67459D01*
X7225D01*
Y65860D01*
X5625D01*
Y55860D02*
Y57459D01*
X7225D01*
Y55860D01*
X5625D01*
Y45859D02*
Y47459D01*
X7225D01*
Y45859D01*
X5625D01*
Y35859D02*
Y37459D01*
X7225D01*
Y35859D01*
X5625D01*
Y25859D02*
Y27459D01*
X7225D01*
Y25859D01*
X5625D01*
Y15859D02*
Y17459D01*
X7225D01*
Y15859D01*
X5625D01*
Y5859D02*
Y7459D01*
X7225D01*
Y5859D01*
X5625D01*
X14125Y75859D02*
Y77460D01*
X15725D01*
Y75859D01*
X14125D01*
Y65860D02*
Y67459D01*
X15725D01*
Y65860D01*
X14125D01*
Y55860D02*
Y57459D01*
X15725D01*
Y55860D01*
X14125D01*
Y45859D02*
Y47459D01*
X15725D01*
Y45859D01*
X14125D01*
Y35859D02*
Y37459D01*
X15725D01*
Y35859D01*
X14125D01*
Y25859D02*
Y27459D01*
X15725D01*
Y25859D01*
X14125D01*
Y15859D02*
Y17459D01*
X15725D01*
Y15859D01*
X14125D01*
Y5859D02*
Y7459D01*
X15725D01*
Y5859D01*
X14125D01*
D53*
X28026Y42930D02*
G03*
X28026Y42930I-800J0D01*
G01*
X41210Y40410D02*
G03*
X41210Y40410I-800J0D01*
G01*
X29945Y16646D02*
G03*
X29945Y16646I-800J0D01*
G01*
X30055Y13877D02*
G03*
X30055Y13877I-800J0D01*
G01*
X26346Y18351D02*
G03*
X26346Y18351I-800J0D01*
G01*
X23530D02*
G03*
X23530Y18351I-800J0D01*
G01*
X37800Y4100D02*
G03*
X37800Y4100I-800J0D01*
G01*
Y6600D02*
G03*
X37800Y6600I-800J0D01*
G01*
X23800Y61850D02*
G03*
X23800Y61850I-800J0D01*
G01*
X40800Y6600D02*
G03*
X40800Y6600I-800J0D01*
G01*
X43790D02*
G03*
X43790Y6600I-800J0D01*
G01*
X43800Y4100D02*
G03*
X43800Y4100I-800J0D01*
G01*
X46800Y6600D02*
G03*
X46800Y6600I-800J0D01*
G01*
X50100Y4100D02*
G03*
X50100Y4100I-800J0D01*
G01*
X40800D02*
G03*
X40800Y4100I-800J0D01*
G01*
X46800D02*
G03*
X46800Y4100I-800J0D01*
G01*
X50100Y6600D02*
G03*
X50100Y6600I-800J0D01*
G01*
X53100D02*
G03*
X53100Y6600I-800J0D01*
G01*
Y4100D02*
G03*
X53100Y4100I-800J0D01*
G01*
X52800Y47000D02*
G03*
X52800Y47000I-800J0D01*
G01*
X53300Y19000D02*
G03*
X53300Y19000I-800J0D01*
G01*
X40800D02*
G03*
X40800Y19000I-800J0D01*
G01*
X47300D02*
G03*
X47300Y19000I-800J0D01*
G01*
X50800D02*
G03*
X50800Y19000I-800J0D01*
G01*
X44300D02*
G03*
X44300Y19000I-800J0D01*
G01*
X37800D02*
G03*
X37800Y19000I-800J0D01*
G01*
X40800Y27000D02*
G03*
X40800Y27000I-800J0D01*
G01*
X53300D02*
G03*
X53300Y27000I-800J0D01*
G01*
X47300D02*
G03*
X47300Y27000I-800J0D01*
G01*
X50800D02*
G03*
X50800Y27000I-800J0D01*
G01*
X44300D02*
G03*
X44300Y27000I-800J0D01*
G01*
X37800D02*
G03*
X37800Y27000I-800J0D01*
G01*
X33800Y57000D02*
G03*
X33800Y57000I-800J0D01*
G01*
X52300Y43000D02*
G03*
X52300Y43000I-800J0D01*
G01*
X49800Y42500D02*
G03*
X49800Y42500I-800J0D01*
G01*
Y39500D02*
G03*
X49800Y39500I-800J0D01*
G01*
X37800Y23000D02*
G03*
X37800Y23000I-800J0D01*
G01*
X53300D02*
G03*
X53300Y23000I-800J0D01*
G01*
X50800D02*
G03*
X50800Y23000I-800J0D01*
G01*
X47300D02*
G03*
X47300Y23000I-800J0D01*
G01*
X44300D02*
G03*
X44300Y23000I-800J0D01*
G01*
X40800D02*
G03*
X40800Y23000I-800J0D01*
G01*
M02*
