G04*
G04 #@! TF.GenerationSoftware,Altium Limited,Altium Designer,21.6.1 (37)*
G04*
G04 Layer_Physical_Order=1*
G04 Layer_Color=255*
%FSLAX25Y25*%
%MOIN*%
G70*
G04*
G04 #@! TF.SameCoordinates,B910C7B4-C9C7-41F4-8FA7-49552EACB796*
G04*
G04*
G04 #@! TF.FilePolarity,Positive*
G04*
G01*
G75*
%ADD10C,0.01000*%
%ADD14R,0.17323X0.12205*%
%ADD15R,0.02362X0.06102*%
%ADD16R,0.03150X0.02362*%
%ADD17R,0.02756X0.03543*%
%ADD18R,0.03543X0.02756*%
%ADD19R,0.04331X0.03150*%
%ADD20R,0.03150X0.04331*%
%ADD21R,0.02362X0.03150*%
%ADD33C,0.00700*%
%ADD34R,0.18078X0.11614*%
%ADD35R,0.15781X0.26500*%
%ADD36R,0.16000X0.27000*%
%ADD37O,0.07000X0.06000*%
%ADD38R,0.07000X0.06000*%
%ADD39C,0.01772*%
G36*
X53546Y49964D02*
X53046Y49630D01*
X53000Y49649D01*
X48000D01*
X47837Y49582D01*
X47298D01*
Y44051D01*
X47351D01*
Y40786D01*
X46925Y40630D01*
X46851Y40626D01*
X44689Y42787D01*
Y44051D01*
X45742D01*
Y49582D01*
X42979D01*
X41122Y51439D01*
Y61150D01*
X41122Y61150D01*
X41036Y61579D01*
X40793Y61943D01*
X39175Y63561D01*
Y65537D01*
X34825D01*
Y64787D01*
X34028D01*
X34028Y64787D01*
X33919Y64765D01*
X30778D01*
Y59235D01*
X33053D01*
X33284Y58735D01*
X33092Y58486D01*
X32704D01*
X32158Y58260D01*
X31740Y57842D01*
X31514Y57296D01*
Y56704D01*
X31740Y56158D01*
X31862Y56037D01*
X31655Y55537D01*
X30825D01*
Y51975D01*
X35175D01*
Y55537D01*
X34378D01*
X34174Y55966D01*
X34427Y56401D01*
X34825Y56463D01*
X34825Y56463D01*
X38878D01*
Y50975D01*
X38878Y50975D01*
X38964Y50546D01*
X39207Y50182D01*
X41393Y47996D01*
Y47095D01*
X40931Y46904D01*
X38798Y49037D01*
X38434Y49280D01*
X38004Y49366D01*
X38004Y49366D01*
X35175D01*
Y50025D01*
X30825D01*
Y49366D01*
X23783D01*
X23354Y49280D01*
X22990Y49037D01*
X22990Y49037D01*
X19333Y45380D01*
X18909Y45664D01*
X18933Y45720D01*
X19056Y46659D01*
X18933Y47599D01*
X18901Y47677D01*
X21852Y50628D01*
X24222D01*
Y55372D01*
X20266D01*
Y52214D01*
X17589Y49537D01*
X17241Y49804D01*
X16365Y50167D01*
X15425Y50291D01*
X14425D01*
X13485Y50167D01*
X12610Y49804D01*
X11858Y49227D01*
X11281Y48475D01*
X10961Y47703D01*
X10675Y47649D01*
X10389Y47703D01*
X10070Y48475D01*
X9493Y49227D01*
X8741Y49804D01*
X7865Y50167D01*
X6925Y50291D01*
X5925D01*
X4985Y50167D01*
X4110Y49804D01*
X3358Y49227D01*
X2781Y48475D01*
X2641Y48138D01*
X2141Y48238D01*
Y52000D01*
X19000D01*
Y52639D01*
X19149Y53000D01*
Y80000D01*
X19000Y80361D01*
Y80859D01*
X53546D01*
Y49964D01*
D02*
G37*
G36*
X38435Y46227D02*
X38244Y45765D01*
X35778D01*
Y40856D01*
X35187D01*
X34222Y41821D01*
Y45765D01*
X29872D01*
Y41821D01*
X28207Y40155D01*
X27964Y39791D01*
X27878Y39362D01*
X27878Y39362D01*
Y26537D01*
X26825D01*
Y25169D01*
X25765D01*
Y26222D01*
X20235D01*
Y21872D01*
X25765D01*
Y22926D01*
X27898D01*
X27898Y22926D01*
X28145Y22975D01*
X31175D01*
Y26537D01*
X30122D01*
Y38898D01*
X31459Y40235D01*
X32636D01*
X33929Y38942D01*
X33929Y38942D01*
X34293Y38699D01*
X34421Y38673D01*
X34845Y38490D01*
Y31187D01*
X35014D01*
Y16893D01*
X35203Y16436D01*
X35205Y16434D01*
X35239Y16420D01*
Y16298D01*
X35664Y16243D01*
X35727Y16270D01*
X35795Y16298D01*
X53546D01*
Y14888D01*
X53530Y14877D01*
X35452D01*
X35292Y14811D01*
X34845D01*
Y14329D01*
X34803Y14228D01*
Y5122D01*
X19594D01*
X19149Y5566D01*
Y11455D01*
X19463Y11825D01*
X22613D01*
Y10922D01*
X22803Y10462D01*
X23262Y10272D01*
X31480D01*
X31939Y10462D01*
X32046Y10569D01*
X32236Y11028D01*
Y20679D01*
X32046Y21138D01*
X31587Y21328D01*
X20337D01*
X19877Y21138D01*
X19824Y21084D01*
X19822Y21079D01*
X19817Y21077D01*
X19727Y20851D01*
X19634Y20625D01*
X19172Y20644D01*
X19149Y20645D01*
Y30000D01*
X19000Y30361D01*
Y31000D01*
X2141D01*
Y35081D01*
X2641Y35181D01*
X2781Y34844D01*
X3358Y34092D01*
X4110Y33515D01*
X4985Y33152D01*
X5925Y33028D01*
X6925D01*
X7865Y33152D01*
X8741Y33515D01*
X9493Y34092D01*
X10070Y34844D01*
X10389Y35616D01*
X10675Y35669D01*
X10961Y35616D01*
X11281Y34844D01*
X11858Y34092D01*
X12610Y33515D01*
X13485Y33152D01*
X14425Y33028D01*
X15425D01*
X16365Y33152D01*
X17241Y33515D01*
X17993Y34092D01*
X18570Y34844D01*
X18933Y35720D01*
X19056Y36659D01*
X18933Y37599D01*
X18570Y38475D01*
X17993Y39227D01*
X17241Y39804D01*
X16365Y40167D01*
X15425Y40290D01*
X14425D01*
X13485Y40167D01*
X12610Y39804D01*
X11858Y39227D01*
X11281Y38475D01*
X10961Y37703D01*
X10675Y37649D01*
X10389Y37703D01*
X10070Y38475D01*
X9493Y39227D01*
X8741Y39804D01*
X7865Y40167D01*
X6925Y40290D01*
X5925D01*
X4985Y40167D01*
X4110Y39804D01*
X3358Y39227D01*
X2781Y38475D01*
X2641Y38138D01*
X2141Y38238D01*
Y45081D01*
X2641Y45181D01*
X2781Y44844D01*
X3358Y44092D01*
X4110Y43515D01*
X4985Y43152D01*
X5925Y43028D01*
X6925D01*
X7865Y43152D01*
X8559Y43440D01*
X10232Y41766D01*
X10232Y41766D01*
X10596Y41523D01*
X11025Y41438D01*
X11025Y41438D01*
X18098D01*
X18098Y41438D01*
X18528Y41523D01*
X18891Y41766D01*
X20166Y43041D01*
X20628Y42850D01*
Y40778D01*
X25372D01*
Y41722D01*
X26333D01*
X26384Y41671D01*
X26930Y41445D01*
X27521D01*
X28067Y41671D01*
X28485Y42089D01*
X28712Y42635D01*
Y43226D01*
X28485Y43772D01*
X28067Y44190D01*
X27521Y44416D01*
X26930D01*
X26384Y44190D01*
X26159Y43965D01*
X25372D01*
Y44734D01*
X22512D01*
X22321Y45196D01*
X24248Y47122D01*
X30825D01*
Y46463D01*
X35175D01*
Y47122D01*
X37540D01*
X38435Y46227D01*
D02*
G37*
G36*
X53000Y43000D02*
X50500Y40500D01*
Y31500D01*
X48000D01*
Y49000D01*
X53000D01*
Y43000D01*
D02*
G37*
G36*
X37880Y37868D02*
Y29429D01*
X37789Y29338D01*
X51314D01*
Y37898D01*
X53543D01*
Y16984D01*
X35755D01*
X35664Y16893D01*
Y37898D01*
X35634Y37929D01*
X37819D01*
X37880Y37868D01*
D02*
G37*
G36*
X31587Y11028D02*
X31480Y10922D01*
X23262D01*
Y15990D01*
X22386Y16333D01*
X20337Y17350D01*
X20283Y20625D01*
X20337Y20679D01*
X31587D01*
Y11028D01*
D02*
G37*
%LPC*%
G36*
X29222Y64765D02*
X24872D01*
Y62519D01*
X24372Y62419D01*
X24260Y62692D01*
X23842Y63110D01*
X23296Y63336D01*
X22704D01*
X22158Y63110D01*
X21740Y62692D01*
X21514Y62146D01*
Y61554D01*
X21740Y61008D01*
X22158Y60590D01*
X22704Y60364D01*
X23296D01*
X23842Y60590D01*
X24260Y61008D01*
X24372Y61281D01*
X24872Y61181D01*
Y59235D01*
X26634D01*
Y55372D01*
X25778D01*
Y50628D01*
X29734D01*
Y55372D01*
X28877D01*
Y59235D01*
X29222D01*
Y64765D01*
D02*
G37*
G36*
X25372Y39222D02*
X20628D01*
Y35266D01*
X21879D01*
Y32128D01*
X20235D01*
Y27778D01*
X25765D01*
Y32128D01*
X24122D01*
Y35266D01*
X25372D01*
Y39222D01*
D02*
G37*
%LPD*%
D10*
X22693Y42843D02*
X27139D01*
X27226Y42930D01*
X22606Y42756D02*
X22693Y42843D01*
X23000Y29953D02*
Y37244D01*
X46075Y34839D02*
Y39816D01*
X43568Y42323D02*
X46075Y39816D01*
X43568Y42323D02*
Y46817D01*
X40000Y50975D02*
X43568Y47407D01*
Y46817D02*
Y47407D01*
X40000Y50975D02*
Y61150D01*
X37000Y63756D02*
X37394D01*
X40000Y61150D01*
X36909Y63665D02*
X37000Y63756D01*
X32953Y62000D02*
Y62590D01*
X34028Y63665D01*
X36909D01*
X32047Y42409D02*
X34722Y39735D01*
X37569D01*
X39094Y38209D01*
Y35520D02*
Y38209D01*
Y35520D02*
X39776Y34839D01*
X29000Y24756D02*
Y39362D01*
X32047Y42409D01*
X23000Y24047D02*
X27898D01*
X28606Y24756D01*
X29000D01*
X40893Y42735D02*
Y45356D01*
X42925Y34839D02*
Y40702D01*
X38004Y48244D02*
X40893Y45356D01*
X33000Y48244D02*
X38004D01*
X40893Y42735D02*
X42925Y40702D01*
X18098Y42559D02*
X23783Y48244D01*
X11025Y42559D02*
X18098D01*
X6925Y46659D02*
X11025Y42559D01*
X23783Y48244D02*
X33000D01*
X6425Y46659D02*
X6925D01*
X16297D02*
X22244Y52606D01*
X14925Y46659D02*
X16297D01*
X22244Y52606D02*
Y53000D01*
X22606Y42756D02*
X23000D01*
X14925Y36659D02*
X16510D01*
X15872Y15713D02*
X19925D01*
X21244Y14000D02*
Y14394D01*
X14925Y16659D02*
X15872Y15713D01*
X19925D02*
X21244Y14394D01*
X27047Y62000D02*
X27756Y61291D01*
Y53000D02*
Y61291D01*
X19130Y4000D02*
X36900D01*
X37000Y4100D01*
X14925Y6659D02*
X16470D01*
X19130Y4000D01*
X5000Y36500D02*
X5500D01*
D14*
X44500Y23000D02*
D03*
D15*
X52374Y34839D02*
D03*
X36626Y11159D02*
D03*
X52374D02*
D03*
X36626Y34839D02*
D03*
X39776D02*
D03*
X42925D02*
D03*
X46075D02*
D03*
X49224D02*
D03*
X39776Y11159D02*
D03*
X42925D02*
D03*
X46075D02*
D03*
X49224D02*
D03*
D16*
X37000Y63756D02*
D03*
Y58244D02*
D03*
X29000Y19244D02*
D03*
Y24756D02*
D03*
X33000Y53756D02*
D03*
Y48244D02*
D03*
D17*
X22244Y53000D02*
D03*
X27756D02*
D03*
D18*
X23000Y37244D02*
D03*
Y42756D02*
D03*
D19*
Y29953D02*
D03*
Y24047D02*
D03*
D20*
X32047Y43000D02*
D03*
X37953D02*
D03*
X43568Y46817D02*
D03*
X49473D02*
D03*
X32953Y62000D02*
D03*
X27047D02*
D03*
D21*
X26756Y14000D02*
D03*
X21244D02*
D03*
D33*
X37953Y42409D02*
X39748Y40615D01*
X40205D01*
X40410Y40410D01*
X37953Y42409D02*
Y43000D01*
X33131Y57000D02*
X34375Y58244D01*
X37000D01*
X33000Y57000D02*
X33131D01*
X33000Y53756D02*
Y57000D01*
D34*
X44491Y8421D02*
D03*
D35*
X10610Y16750D02*
D03*
D36*
X10500Y66500D02*
D03*
D37*
X6425Y76660D02*
D03*
Y66659D02*
D03*
Y56660D02*
D03*
Y46659D02*
D03*
Y36659D02*
D03*
Y26659D02*
D03*
Y16659D02*
D03*
X14925Y66659D02*
D03*
Y56660D02*
D03*
Y46659D02*
D03*
Y36659D02*
D03*
Y26659D02*
D03*
Y16659D02*
D03*
Y6659D02*
D03*
D38*
X6425D02*
D03*
X14925Y76660D02*
D03*
D39*
X27226Y42930D02*
D03*
X40410Y40410D02*
D03*
X29145Y16646D02*
D03*
X29255Y13877D02*
D03*
X25546Y18351D02*
D03*
X22730D02*
D03*
X37000Y4100D02*
D03*
Y6600D02*
D03*
X23000Y61850D02*
D03*
X40000Y6600D02*
D03*
X42990D02*
D03*
X43000Y4100D02*
D03*
X46000Y6600D02*
D03*
X49300Y4100D02*
D03*
X40000D02*
D03*
X46000D02*
D03*
X49300Y6600D02*
D03*
X52300D02*
D03*
Y4100D02*
D03*
X52000Y47000D02*
D03*
X52500Y19000D02*
D03*
X40000D02*
D03*
X46500D02*
D03*
X50000D02*
D03*
X43500D02*
D03*
X37000D02*
D03*
X40000Y27000D02*
D03*
X52500D02*
D03*
X46500D02*
D03*
X50000D02*
D03*
X43500D02*
D03*
X37000D02*
D03*
X33000Y57000D02*
D03*
X51500Y43000D02*
D03*
X49000Y42500D02*
D03*
Y39500D02*
D03*
X37000Y23000D02*
D03*
X52500D02*
D03*
X50000D02*
D03*
X46500D02*
D03*
X43500D02*
D03*
X40000D02*
D03*
M02*
