G04*
G04 #@! TF.GenerationSoftware,Altium Limited,Altium Designer,21.6.1 (37)*
G04*
G04 Layer_Physical_Order=4*
G04 Layer_Color=16711680*
%FSLAX25Y25*%
%MOIN*%
G70*
G04*
G04 #@! TF.SameCoordinates,B910C7B4-C9C7-41F4-8FA7-49552EACB796*
G04*
G04*
G04 #@! TF.FilePolarity,Positive*
G04*
G01*
G75*
%ADD10C,0.01000*%
%ADD37O,0.07000X0.06000*%
%ADD38R,0.07000X0.06000*%
%ADD39C,0.01772*%
%ADD44R,0.04331X0.03937*%
%ADD45C,0.01500*%
%ADD46R,0.13000X0.07000*%
%ADD47R,0.14806X0.06618*%
%ADD48R,0.14732X0.06500*%
%ADD49R,0.10911X0.11000*%
%ADD50R,0.14134X0.06325*%
G36*
X53546Y48262D02*
X53046Y48055D01*
X52842Y48260D01*
X52296Y48486D01*
X51704D01*
X51158Y48260D01*
X50740Y47842D01*
X50514Y47295D01*
Y46705D01*
X50740Y46158D01*
X51158Y45740D01*
X51704Y45514D01*
X52296D01*
X52842Y45740D01*
X53046Y45945D01*
X53546Y45738D01*
Y28708D01*
X53046Y28382D01*
X52796Y28486D01*
X52204D01*
X51658Y28260D01*
X51250Y27851D01*
X50842Y28260D01*
X50296Y28486D01*
X49705D01*
X49158Y28260D01*
X48740Y27842D01*
X48514Y27296D01*
Y26704D01*
X48740Y26158D01*
X49158Y25740D01*
X49705Y25514D01*
X50296D01*
X50842Y25740D01*
X51250Y26149D01*
X51658Y25740D01*
X52204Y25514D01*
X52796D01*
X53046Y25618D01*
X53546Y25292D01*
Y24708D01*
X53046Y24382D01*
X52796Y24486D01*
X52204D01*
X51658Y24260D01*
X51250Y23851D01*
X50842Y24260D01*
X50296Y24486D01*
X49705D01*
X49158Y24260D01*
X48740Y23842D01*
X48514Y23296D01*
Y22704D01*
X48740Y22158D01*
X49158Y21740D01*
X49705Y21514D01*
X50296D01*
X50842Y21740D01*
X51250Y22149D01*
X51658Y21740D01*
X52204Y21514D01*
X52796D01*
X53046Y21618D01*
X53546Y21292D01*
Y20708D01*
X53046Y20382D01*
X52796Y20486D01*
X52204D01*
X51658Y20260D01*
X51250Y19851D01*
X50842Y20260D01*
X50296Y20486D01*
X49705D01*
X49158Y20260D01*
X48740Y19842D01*
X48514Y19296D01*
Y18704D01*
X48740Y18158D01*
X49158Y17740D01*
X49705Y17514D01*
X50296D01*
X50842Y17740D01*
X51250Y18149D01*
X51658Y17740D01*
X52204Y17514D01*
X52796D01*
X53046Y17618D01*
X53546Y17292D01*
Y8108D01*
X53046Y7899D01*
X52596Y8086D01*
X52004D01*
X51458Y7860D01*
X51083Y7484D01*
X50800Y7461D01*
X50517Y7484D01*
X50142Y7860D01*
X49595Y8086D01*
X49005D01*
X48458Y7860D01*
X48040Y7442D01*
X47921Y7153D01*
X47379D01*
X47260Y7442D01*
X46842Y7860D01*
X46295Y8086D01*
X45704D01*
X45158Y7860D01*
X44776Y7477D01*
X44495Y7458D01*
X44214Y7477D01*
X43832Y7860D01*
X43286Y8086D01*
X42695D01*
X42149Y7860D01*
X41780Y7491D01*
X41495Y7464D01*
X41210Y7491D01*
X40842Y7860D01*
X40295Y8086D01*
X39704D01*
X39158Y7860D01*
X38783Y7484D01*
X38500Y7461D01*
X38217Y7484D01*
X37842Y7860D01*
X37295Y8086D01*
X36704D01*
X36158Y7860D01*
X35740Y7442D01*
X35514Y6896D01*
Y6304D01*
X35740Y5758D01*
X36149Y5350D01*
X35740Y4942D01*
X35514Y4396D01*
Y3804D01*
X35740Y3258D01*
X35928Y3071D01*
X35721Y2571D01*
X26131D01*
X25959Y3041D01*
X26149Y3500D01*
Y9825D01*
X25959Y10284D01*
X25500Y10474D01*
X19000D01*
Y16232D01*
X19056Y16659D01*
X19000Y17087D01*
Y26232D01*
X19056Y26659D01*
X19000Y27087D01*
Y31000D01*
X2141D01*
Y35081D01*
X2641Y35181D01*
X2781Y34844D01*
X3358Y34092D01*
X4110Y33515D01*
X4985Y33152D01*
X5925Y33028D01*
X6925D01*
X7865Y33152D01*
X8741Y33515D01*
X9493Y34092D01*
X10070Y34844D01*
X10389Y35616D01*
X10675Y35669D01*
X10961Y35616D01*
X11281Y34844D01*
X11351Y34753D01*
Y33000D01*
X11541Y32541D01*
X12000Y32351D01*
X25000D01*
X25459Y32541D01*
X25500Y32640D01*
X25765D01*
Y34612D01*
X26080Y34958D01*
X26509Y35043D01*
X26873Y35287D01*
X28019Y36433D01*
X28262Y36797D01*
X28347Y37226D01*
X28347Y37226D01*
Y41951D01*
X28485Y42089D01*
X28712Y42635D01*
Y43226D01*
X28485Y43772D01*
X28067Y44190D01*
X27521Y44416D01*
X26930D01*
X26871Y44392D01*
X26456Y44669D01*
Y49986D01*
X26265Y50446D01*
X25806Y50636D01*
X11000D01*
X10541Y50446D01*
X10351Y49986D01*
Y48930D01*
X9851Y48761D01*
X9493Y49227D01*
X8741Y49804D01*
X7865Y50167D01*
X6925Y50291D01*
X5925D01*
X4985Y50167D01*
X4110Y49804D01*
X3358Y49227D01*
X2781Y48475D01*
X2641Y48138D01*
X2141Y48238D01*
Y52000D01*
X19000D01*
Y56232D01*
X19056Y56660D01*
X19000Y57087D01*
Y66232D01*
X19056Y66659D01*
X19000Y67087D01*
Y72820D01*
X25732D01*
X26191Y73011D01*
X26382Y73470D01*
Y79970D01*
X26221Y80359D01*
X26415Y80859D01*
X53546D01*
Y48262D01*
D02*
G37*
G36*
X2781Y44844D02*
X3358Y44092D01*
X4110Y43515D01*
X4985Y43152D01*
X5925Y43028D01*
X6925D01*
X7865Y43152D01*
X8741Y43515D01*
X9493Y44092D01*
X9851Y44558D01*
X10351Y44388D01*
Y43369D01*
X10541Y42909D01*
X11000Y42719D01*
X25740D01*
Y42635D01*
X25966Y42089D01*
X26104Y41951D01*
Y40209D01*
X25604Y40109D01*
X25459Y40459D01*
X25000Y40649D01*
X12000D01*
X11541Y40459D01*
X11351Y40000D01*
Y38566D01*
X11281Y38475D01*
X10961Y37703D01*
X10675Y37649D01*
X10389Y37703D01*
X10070Y38475D01*
X9493Y39227D01*
X8741Y39804D01*
X7865Y40167D01*
X6925Y40290D01*
X5925D01*
X4985Y40167D01*
X4110Y39804D01*
X3358Y39227D01*
X2781Y38475D01*
X2641Y38138D01*
X2141Y38238D01*
Y45081D01*
X2641Y45181D01*
X2781Y44844D01*
D02*
G37*
%LPC*%
G36*
X25765Y68860D02*
X20235D01*
Y63723D01*
X21617D01*
Y62420D01*
X21611Y62387D01*
X21612Y62381D01*
X21514Y62146D01*
Y61554D01*
X21617Y61306D01*
Y60777D01*
X20235D01*
Y55640D01*
X25765D01*
Y60777D01*
X24370D01*
Y61275D01*
X24486Y61554D01*
Y62146D01*
X24370Y62425D01*
Y63723D01*
X25765D01*
Y68860D01*
D02*
G37*
G36*
X33296Y58486D02*
X32704D01*
X32158Y58260D01*
X31740Y57842D01*
X31514Y57296D01*
Y56704D01*
X31740Y56158D01*
X32158Y55740D01*
X32704Y55514D01*
X33296D01*
X33842Y55740D01*
X34260Y56158D01*
X34486Y56704D01*
Y57296D01*
X34260Y57842D01*
X33842Y58260D01*
X33296Y58486D01*
D02*
G37*
G36*
X51796Y44486D02*
X51204D01*
X50658Y44260D01*
X50240Y43842D01*
X50239Y43839D01*
X49842Y43760D01*
X49295Y43986D01*
X48704D01*
X48158Y43760D01*
X47740Y43342D01*
X47514Y42796D01*
Y42204D01*
X47740Y41658D01*
X48116Y41283D01*
X48139Y41000D01*
X48116Y40717D01*
X47740Y40342D01*
X47514Y39796D01*
Y39204D01*
X47740Y38658D01*
X48158Y38240D01*
X48704Y38014D01*
X49295D01*
X49842Y38240D01*
X50260Y38658D01*
X50486Y39204D01*
Y39796D01*
X50260Y40342D01*
X49884Y40717D01*
X49861Y41000D01*
X49884Y41283D01*
X50260Y41658D01*
X50261Y41661D01*
X50658Y41740D01*
X51204Y41514D01*
X51796D01*
X52342Y41740D01*
X52760Y42158D01*
X52986Y42704D01*
Y43295D01*
X52760Y43842D01*
X52342Y44260D01*
X51796Y44486D01*
D02*
G37*
G36*
X40705Y41895D02*
X40114D01*
X39568Y41669D01*
X39150Y41251D01*
X38924Y40705D01*
Y40114D01*
X39150Y39568D01*
X39568Y39150D01*
X40114Y38924D01*
X40705D01*
X41251Y39150D01*
X41669Y39568D01*
X41895Y40114D01*
Y40705D01*
X41669Y41251D01*
X41251Y41669D01*
X40705Y41895D01*
D02*
G37*
G36*
X46795Y28486D02*
X46205D01*
X45658Y28260D01*
X45283Y27884D01*
X45000Y27861D01*
X44717Y27884D01*
X44342Y28260D01*
X43795Y28486D01*
X43205D01*
X42658Y28260D01*
X42240Y27842D01*
X42014Y27296D01*
Y26704D01*
X42240Y26158D01*
X42658Y25740D01*
X43205Y25514D01*
X43795D01*
X44342Y25740D01*
X44717Y26116D01*
X45000Y26139D01*
X45283Y26116D01*
X45658Y25740D01*
X46205Y25514D01*
X46795D01*
X47342Y25740D01*
X47760Y26158D01*
X47986Y26704D01*
Y27296D01*
X47760Y27842D01*
X47342Y28260D01*
X46795Y28486D01*
D02*
G37*
G36*
X40295D02*
X39704D01*
X39158Y28260D01*
X38783Y27884D01*
X38500Y27861D01*
X38217Y27884D01*
X37842Y28260D01*
X37295Y28486D01*
X36704D01*
X36158Y28260D01*
X35740Y27842D01*
X35514Y27296D01*
Y26704D01*
X35740Y26158D01*
X36158Y25740D01*
X36704Y25514D01*
X37295D01*
X37842Y25740D01*
X38217Y26116D01*
X38500Y26139D01*
X38783Y26116D01*
X39158Y25740D01*
X39704Y25514D01*
X40295D01*
X40842Y25740D01*
X41260Y26158D01*
X41486Y26704D01*
Y27296D01*
X41260Y27842D01*
X40842Y28260D01*
X40295Y28486D01*
D02*
G37*
G36*
X46795Y24486D02*
X46205D01*
X45658Y24260D01*
X45283Y23884D01*
X45000Y23861D01*
X44717Y23884D01*
X44342Y24260D01*
X43795Y24486D01*
X43205D01*
X42658Y24260D01*
X42240Y23842D01*
X42014Y23296D01*
Y22704D01*
X42240Y22158D01*
X42658Y21740D01*
X43205Y21514D01*
X43795D01*
X44342Y21740D01*
X44717Y22116D01*
X45000Y22139D01*
X45283Y22116D01*
X45658Y21740D01*
X46205Y21514D01*
X46795D01*
X47342Y21740D01*
X47760Y22158D01*
X47986Y22704D01*
Y23296D01*
X47760Y23842D01*
X47342Y24260D01*
X46795Y24486D01*
D02*
G37*
G36*
X40295D02*
X39704D01*
X39158Y24260D01*
X38783Y23884D01*
X38500Y23861D01*
X38217Y23884D01*
X37842Y24260D01*
X37295Y24486D01*
X36704D01*
X36158Y24260D01*
X35740Y23842D01*
X35514Y23296D01*
Y22704D01*
X35740Y22158D01*
X36158Y21740D01*
X36704Y21514D01*
X37295D01*
X37842Y21740D01*
X38217Y22116D01*
X38500Y22139D01*
X38783Y22116D01*
X39158Y21740D01*
X39704Y21514D01*
X40295D01*
X40842Y21740D01*
X41260Y22158D01*
X41486Y22704D01*
Y23296D01*
X41260Y23842D01*
X40842Y24260D01*
X40295Y24486D01*
D02*
G37*
G36*
X46795Y20486D02*
X46205D01*
X45658Y20260D01*
X45283Y19884D01*
X45000Y19861D01*
X44717Y19884D01*
X44342Y20260D01*
X43795Y20486D01*
X43205D01*
X42658Y20260D01*
X42240Y19842D01*
X42014Y19296D01*
Y18704D01*
X42240Y18158D01*
X42658Y17740D01*
X43205Y17514D01*
X43795D01*
X44342Y17740D01*
X44717Y18116D01*
X45000Y18139D01*
X45283Y18116D01*
X45658Y17740D01*
X46205Y17514D01*
X46795D01*
X47342Y17740D01*
X47760Y18158D01*
X47986Y18704D01*
Y19296D01*
X47760Y19842D01*
X47342Y20260D01*
X46795Y20486D01*
D02*
G37*
G36*
X40295D02*
X39704D01*
X39158Y20260D01*
X38783Y19884D01*
X38500Y19861D01*
X38217Y19884D01*
X37842Y20260D01*
X37295Y20486D01*
X36704D01*
X36158Y20260D01*
X35740Y19842D01*
X35514Y19296D01*
Y18704D01*
X35740Y18158D01*
X36158Y17740D01*
X36704Y17514D01*
X37295D01*
X37842Y17740D01*
X38217Y18116D01*
X38500Y18139D01*
X38783Y18116D01*
X39158Y17740D01*
X39704Y17514D01*
X40295D01*
X40842Y17740D01*
X41260Y18158D01*
X41486Y18704D01*
Y19296D01*
X41260Y19842D01*
X40842Y20260D01*
X40295Y20486D01*
D02*
G37*
G36*
X31500Y26649D02*
X20589D01*
X20130Y26459D01*
X19940Y26000D01*
Y15000D01*
X20130Y14541D01*
X20589Y14351D01*
X27650D01*
X27769Y14172D01*
Y13581D01*
X27995Y13035D01*
X28413Y12617D01*
X28959Y12391D01*
X29550D01*
X30096Y12617D01*
X30514Y13035D01*
X30740Y13581D01*
Y14172D01*
X30860Y14351D01*
X31500D01*
X31959Y14541D01*
X32149Y15000D01*
Y26000D01*
X31959Y26459D01*
X31500Y26649D01*
D02*
G37*
%LPD*%
D10*
X23000Y35209D02*
X23871Y36080D01*
X27226Y37226D02*
Y42930D01*
X23871Y36080D02*
X26080D01*
X27226Y37226D01*
X23000Y35209D02*
X23197D01*
X21368Y46659D02*
X21500Y46791D01*
X14925Y76660D02*
X14974Y76709D01*
X5000Y36500D02*
X5500D01*
D37*
X6425Y76660D02*
D03*
Y66659D02*
D03*
Y56660D02*
D03*
Y46659D02*
D03*
Y36659D02*
D03*
Y26659D02*
D03*
Y16659D02*
D03*
X14925Y66659D02*
D03*
Y56660D02*
D03*
Y46659D02*
D03*
Y36659D02*
D03*
Y26659D02*
D03*
Y16659D02*
D03*
Y6659D02*
D03*
D38*
X6425D02*
D03*
X14925Y76660D02*
D03*
D39*
X27226Y42930D02*
D03*
X40410Y40410D02*
D03*
X29145Y16646D02*
D03*
X29255Y13877D02*
D03*
X25546Y18351D02*
D03*
X22730D02*
D03*
X37000Y4100D02*
D03*
Y6600D02*
D03*
X23000Y61850D02*
D03*
X40000Y6600D02*
D03*
X42990D02*
D03*
X43000Y4100D02*
D03*
X46000Y6600D02*
D03*
X49300Y4100D02*
D03*
X40000D02*
D03*
X46000D02*
D03*
X49300Y6600D02*
D03*
X52300D02*
D03*
Y4100D02*
D03*
X52000Y47000D02*
D03*
X52500Y19000D02*
D03*
X40000D02*
D03*
X46500D02*
D03*
X50000D02*
D03*
X43500D02*
D03*
X37000D02*
D03*
X40000Y27000D02*
D03*
X52500D02*
D03*
X46500D02*
D03*
X50000D02*
D03*
X43500D02*
D03*
X37000D02*
D03*
X33000Y57000D02*
D03*
X51500Y43000D02*
D03*
X49000Y42500D02*
D03*
Y39500D02*
D03*
X37000Y23000D02*
D03*
X52500D02*
D03*
X50000D02*
D03*
X46500D02*
D03*
X43500D02*
D03*
X40000D02*
D03*
D44*
X23000Y35209D02*
D03*
Y77709D02*
D03*
Y66291D02*
D03*
Y5791D02*
D03*
Y17209D02*
D03*
Y23791D02*
D03*
Y58209D02*
D03*
Y46791D02*
D03*
D45*
X22994Y62393D02*
Y65285D01*
Y58215D02*
X23000Y58209D01*
X22987Y62387D02*
X22994Y62380D01*
Y65285D02*
X23000Y65291D01*
X22987Y62387D02*
X22994Y62393D01*
Y58215D02*
Y62380D01*
D46*
X18500Y36500D02*
D03*
D47*
X18403Y46678D02*
D03*
D48*
X18366Y76720D02*
D03*
D49*
X26045Y20500D02*
D03*
D50*
X18433Y6662D02*
D03*
M02*
