G04*
G04 #@! TF.GenerationSoftware,Altium Limited,Altium Designer,21.6.1 (37)*
G04*
G04 Layer_Color=8421504*
%FSLAX25Y25*%
%MOIN*%
G70*
G04*
G04 #@! TF.SameCoordinates,B910C7B4-C9C7-41F4-8FA7-49552EACB796*
G04*
G04*
G04 #@! TF.FilePolarity,Positive*
G04*
G01*
G75*
%ADD14R,0.17323X0.12205*%
%ADD15R,0.02362X0.06102*%
%ADD16R,0.03150X0.02362*%
%ADD17R,0.02756X0.03543*%
%ADD18R,0.03543X0.02756*%
%ADD19R,0.04331X0.03150*%
%ADD20R,0.03150X0.04331*%
%ADD21R,0.02362X0.03150*%
D14*
X44500Y23000D02*
D03*
D15*
X52374Y34839D02*
D03*
X36626Y11159D02*
D03*
X52374D02*
D03*
X36626Y34839D02*
D03*
X39776D02*
D03*
X42925D02*
D03*
X46075D02*
D03*
X49224D02*
D03*
X39776Y11159D02*
D03*
X42925D02*
D03*
X46075D02*
D03*
X49224D02*
D03*
D16*
X37000Y63756D02*
D03*
Y58244D02*
D03*
X29000Y19244D02*
D03*
Y24756D02*
D03*
X33000Y53756D02*
D03*
Y48244D02*
D03*
D17*
X22244Y53000D02*
D03*
X27756D02*
D03*
D18*
X23000Y37244D02*
D03*
Y42756D02*
D03*
D19*
Y29953D02*
D03*
Y24047D02*
D03*
D20*
X32047Y43000D02*
D03*
X37953D02*
D03*
X43568Y46817D02*
D03*
X49473D02*
D03*
X32953Y62000D02*
D03*
X27047D02*
D03*
D21*
X26756Y14000D02*
D03*
X21244D02*
D03*
M02*
