G04*
G04 #@! TF.GenerationSoftware,Altium Limited,Altium Designer,21.6.1 (37)*
G04*
G04 Layer_Color=8388736*
%FSLAX25Y25*%
%MOIN*%
G70*
G04*
G04 #@! TF.SameCoordinates,B910C7B4-C9C7-41F4-8FA7-49552EACB796*
G04*
G04*
G04 #@! TF.FilePolarity,Negative*
G04*
G01*
G75*
%ADD22R,0.17523X0.12405*%
%ADD23R,0.02562X0.06302*%
%ADD24R,0.03350X0.02562*%
%ADD25R,0.02956X0.03743*%
%ADD26R,0.03743X0.02956*%
%ADD27R,0.04531X0.03350*%
%ADD28R,0.03350X0.04531*%
%ADD29R,0.02562X0.03350*%
%ADD30O,0.07200X0.06200*%
%ADD31R,0.07200X0.06200*%
%ADD32C,0.01972*%
D22*
X44500Y23000D02*
D03*
D23*
X52374Y34839D02*
D03*
X36626Y11159D02*
D03*
X52374D02*
D03*
X36626Y34839D02*
D03*
X39776D02*
D03*
X42925D02*
D03*
X46075D02*
D03*
X49224D02*
D03*
X39776Y11159D02*
D03*
X42925D02*
D03*
X46075D02*
D03*
X49224D02*
D03*
D24*
X37000Y63756D02*
D03*
Y58244D02*
D03*
X29000Y19244D02*
D03*
Y24756D02*
D03*
X33000Y53756D02*
D03*
Y48244D02*
D03*
D25*
X22244Y53000D02*
D03*
X27756D02*
D03*
D26*
X23000Y37244D02*
D03*
Y42756D02*
D03*
D27*
Y29953D02*
D03*
Y24047D02*
D03*
D28*
X32047Y43000D02*
D03*
X37953D02*
D03*
X43568Y46817D02*
D03*
X49473D02*
D03*
X32953Y62000D02*
D03*
X27047D02*
D03*
D29*
X26756Y14000D02*
D03*
X21244D02*
D03*
D30*
X6425Y76660D02*
D03*
Y66659D02*
D03*
Y56660D02*
D03*
Y46659D02*
D03*
Y36659D02*
D03*
Y26659D02*
D03*
Y16659D02*
D03*
X14925Y66659D02*
D03*
Y56660D02*
D03*
Y46659D02*
D03*
Y36659D02*
D03*
Y26659D02*
D03*
Y16659D02*
D03*
Y6659D02*
D03*
D31*
X6425D02*
D03*
X14925Y76660D02*
D03*
D32*
X27226Y42930D02*
D03*
X40410Y40410D02*
D03*
X29145Y16646D02*
D03*
X29255Y13877D02*
D03*
X25546Y18351D02*
D03*
X22730D02*
D03*
X37000Y4100D02*
D03*
Y6600D02*
D03*
X23000Y61850D02*
D03*
X40000Y6600D02*
D03*
X42990D02*
D03*
X43000Y4100D02*
D03*
X46000Y6600D02*
D03*
X49300Y4100D02*
D03*
X40000D02*
D03*
X46000D02*
D03*
X49300Y6600D02*
D03*
X52300D02*
D03*
Y4100D02*
D03*
X52000Y47000D02*
D03*
X52500Y19000D02*
D03*
X40000D02*
D03*
X46500D02*
D03*
X50000D02*
D03*
X43500D02*
D03*
X37000D02*
D03*
X40000Y27000D02*
D03*
X52500D02*
D03*
X46500D02*
D03*
X50000D02*
D03*
X43500D02*
D03*
X37000D02*
D03*
X33000Y57000D02*
D03*
X51500Y43000D02*
D03*
X49000Y42500D02*
D03*
Y39500D02*
D03*
X37000Y23000D02*
D03*
X52500D02*
D03*
X50000D02*
D03*
X46500D02*
D03*
X43500D02*
D03*
X40000D02*
D03*
M02*
