M48
;Layer_Color=9474304
;FILE_FORMAT=2:5
INCH,LZ
;TYPE=PLATED
T1F00S00C0.01181
T2F00S00C0.03500
T3F00S00C0.04000
%
T01
X0027475Y0008597
X0037Y00066
Y00041
X004
Y00066
X004299
X0043Y00041
X0046
Y00066
X00493
Y00041
X00523
Y00066
X00525Y0019
X005
X00465
X00435
X004
X0037
Y0023
X004
X00435
X00465
X005
X00525
Y0027
X005
X00465
X00435
X004
X0037
X0031885Y002917
X0031Y0017
X0041Y0042
X0049Y00425
X00515Y0043
X0049Y00395
X0042Y0055
X0034987Y006
T02
X0006425Y0006659
X0014925
Y0016659
X0006425
Y0026659
X0014925
Y0036659
X0006425
Y0046659
X0014925
Y005666
X0006425
Y0066659
X0014925
Y007666
X0006425
T03
X0025Y0027
Y0037
Y0047
Y0057
Y0067
Y0077
M30
